# xmcd
#
# Track frame offsets: 
#        150
#        19160
#        35128
#        53001
#        92089
#        109915
#        150215
#        176937
#        198422
#        234396
#        259949
#
# Disc length: 4027 seconds
#
# Revision: 0
# Processed by: cddbd v1.5.2PL0 Copyright (c) Steve Scherf et al.
# Submitted via: ExactAudioCopy v0.90b4
#
DISCID=8e0fb90b
DTITLE=Various Artist - 3rd Annual Delta Groove All-Star Blues Revue 
DTITLE=Live @ Ground Zero Vol. 1
DYEAR=2009
DGENRE=Live Blues
TTITLE0=Los Fabulocos - I'm Gonna Be a Wheel Someday
TTITLE1=The Insomniacs - At Least I'm Not With You
TTITLE2=The Mannish Boys featuring Johhny Dyer - Everything's Gonna Be
TTITLE2=Alright
TTITLE3=Philip Walker - Street Walking Woman
TTITLE4=The Mannish Boys featuring Finis Tasby - Lonesome Bedroom Blue
TTITLE4=s
TTITLE5=The Insomniacs - Description Blues
TTITLE6=Junior Watson - Wolf Pack
TTITLE7=The Mannish Boys featuring Kirk "Eli" Fletcher - Lucille
TTITLE8=Jackie Payne Steve Edmonson Band - She's Nineteen Years Old
TTITLE9=Mike Zito - Dirty Blonde
TTITLE10=Jason Ricci and New Blood - Shake Your Hips
EXTD=
EXTT0=
EXTT1=
EXTT2=
EXTT3=
EXTT4=
EXTT5=
EXTT6=
EXTT7=
EXTT8=
EXTT9=
EXTT10=
PLAYORDER=
